<mxfile host="app.diagrams.net" modified="2020-09-23T13:42:39.066Z" agent="5.0 (Windows NT 6.3; Win64; x64) AppleWebKit/537.36 (KHTML, like Gecko) Chrome/84.0.4147.135 Safari/537.36 OPR/70.0.3728.178" etag="mPlhrQGIZZMJe5-lHm8S" version="13.7.5" type="github">
  <diagram id="a3Nzvsb-ldIFVv8W4qNW" name="Page-1">
    <mxGraphModel dx="998" dy="551" grid="1" gridSize="10" guides="1" tooltips="1" connect="1" arrows="1" fold="1" page="1" pageScale="1" pageWidth="827" pageHeight="1169" math="0" shadow="0">
      <root>
        <mxCell id="0" />
        <mxCell id="1" parent="0" />
        <mxCell id="kStDeDPKtdsZhYMW48w8-9" style="edgeStyle=orthogonalEdgeStyle;rounded=0;orthogonalLoop=1;jettySize=auto;html=1;exitX=0.5;exitY=1;exitDx=0;exitDy=0;" edge="1" parent="1" source="kStDeDPKtdsZhYMW48w8-1" target="kStDeDPKtdsZhYMW48w8-2">
          <mxGeometry relative="1" as="geometry" />
        </mxCell>
        <mxCell id="kStDeDPKtdsZhYMW48w8-1" value="Начало" style="ellipse;whiteSpace=wrap;html=1;" vertex="1" parent="1">
          <mxGeometry x="260" y="60" width="120" height="40" as="geometry" />
        </mxCell>
        <mxCell id="kStDeDPKtdsZhYMW48w8-12" style="edgeStyle=orthogonalEdgeStyle;rounded=0;orthogonalLoop=1;jettySize=auto;html=1;exitX=0.5;exitY=1;exitDx=0;exitDy=0;entryX=0.5;entryY=0;entryDx=0;entryDy=0;" edge="1" parent="1" source="kStDeDPKtdsZhYMW48w8-2" target="kStDeDPKtdsZhYMW48w8-4">
          <mxGeometry relative="1" as="geometry" />
        </mxCell>
        <mxCell id="kStDeDPKtdsZhYMW48w8-2" value="a=5, b=6" style="shape=parallelogram;perimeter=parallelogramPerimeter;whiteSpace=wrap;html=1;fixedSize=1;" vertex="1" parent="1">
          <mxGeometry x="260" y="130" width="120" height="60" as="geometry" />
        </mxCell>
        <mxCell id="kStDeDPKtdsZhYMW48w8-13" style="edgeStyle=orthogonalEdgeStyle;rounded=0;orthogonalLoop=1;jettySize=auto;html=1;exitX=0.5;exitY=1;exitDx=0;exitDy=0;entryX=0.5;entryY=0;entryDx=0;entryDy=0;" edge="1" parent="1" source="kStDeDPKtdsZhYMW48w8-4" target="kStDeDPKtdsZhYMW48w8-5">
          <mxGeometry relative="1" as="geometry" />
        </mxCell>
        <mxCell id="kStDeDPKtdsZhYMW48w8-4" value="перевод a, b в двоичный вид" style="rounded=0;whiteSpace=wrap;html=1;" vertex="1" parent="1">
          <mxGeometry x="240" y="220" width="160" height="50" as="geometry" />
        </mxCell>
        <mxCell id="kStDeDPKtdsZhYMW48w8-14" style="edgeStyle=orthogonalEdgeStyle;rounded=0;orthogonalLoop=1;jettySize=auto;html=1;exitX=0.5;exitY=1;exitDx=0;exitDy=0;entryX=0.5;entryY=0;entryDx=0;entryDy=0;" edge="1" parent="1" source="kStDeDPKtdsZhYMW48w8-5" target="kStDeDPKtdsZhYMW48w8-6">
          <mxGeometry relative="1" as="geometry" />
        </mxCell>
        <mxCell id="kStDeDPKtdsZhYMW48w8-5" value="выполнение операций a|b, a&amp;amp;b, a^b" style="rounded=0;whiteSpace=wrap;html=1;" vertex="1" parent="1">
          <mxGeometry x="240" y="300" width="160" height="50" as="geometry" />
        </mxCell>
        <mxCell id="kStDeDPKtdsZhYMW48w8-15" style="edgeStyle=orthogonalEdgeStyle;rounded=0;orthogonalLoop=1;jettySize=auto;html=1;exitX=0.5;exitY=1;exitDx=0;exitDy=0;entryX=0.5;entryY=0;entryDx=0;entryDy=0;" edge="1" parent="1" source="kStDeDPKtdsZhYMW48w8-6" target="kStDeDPKtdsZhYMW48w8-7">
          <mxGeometry relative="1" as="geometry" />
        </mxCell>
        <mxCell id="kStDeDPKtdsZhYMW48w8-6" value="выполнение операций a&amp;lt;&amp;lt;2, a&amp;gt;&amp;gt;2" style="rounded=0;whiteSpace=wrap;html=1;" vertex="1" parent="1">
          <mxGeometry x="240" y="380" width="160" height="50" as="geometry" />
        </mxCell>
        <mxCell id="kStDeDPKtdsZhYMW48w8-7" value="Конец" style="ellipse;whiteSpace=wrap;html=1;" vertex="1" parent="1">
          <mxGeometry x="260" y="460" width="120" height="40" as="geometry" />
        </mxCell>
      </root>
    </mxGraphModel>
  </diagram>
</mxfile>
